# Blender v2.79 (sub 0) OBJ File: 'test_model.blend'
# www.blender.org
mtllib test_model.mtl
o Cube_Cube.001
v -0.298788 0.000000 -2.935444
v -0.298788 0.000000 -3.533020
v 0.298788 0.000000 -2.935444
v 0.298788 0.000000 -3.533020
v 3.690280 0.000000 -3.533020
v 3.190280 0.000000 -3.533020
v 3.190280 0.000000 -2.935444
v -0.298788 2.560815 -2.935444
v -0.298788 2.560815 -3.533020
v 0.298788 2.560815 -2.935444
v 3.690280 2.560815 -2.935444
v 0.298788 2.560815 -3.533020
v 3.690280 2.560815 -3.533020
v 3.190280 2.560815 -3.533020
v 3.190280 2.560815 -2.935444
v -0.298788 1.461704 -2.935444
v 0.298788 1.461704 -2.935444
v -0.298788 1.461704 -3.533020
v 3.190280 1.461704 -3.533020
v 0.298788 1.461704 -3.533020
v 3.190280 1.461704 -2.935444
v 3.690280 1.461704 -2.935444
v 3.690280 1.461704 -3.533020
v 5.268847 0.000000 -2.935444
v 5.268847 0.000000 -3.533020
v 5.268847 1.461704 -2.935444
v 5.268847 1.461704 -3.533020
v 5.230205 0.665600 -3.541407
v 3.454069 2.037617 -3.099940
v 0.298788 0.000000 -2.935444
v 0.298788 0.000000 -3.533020
v -0.298788 0.000000 -2.935444
v -0.298788 0.000000 -3.533020
v -3.690280 0.000000 -3.533020
v -3.190280 0.000000 -3.533020
v -3.190280 0.000000 -2.935444
v 0.298788 2.560815 -2.935444
v 0.298788 2.560815 -3.533020
v -0.298788 2.560815 -2.935444
v -3.690280 2.560815 -2.935444
v -0.298788 2.560815 -3.533020
v -3.690280 2.560815 -3.533020
v -3.190280 2.560815 -3.533020
v -3.190280 2.560815 -2.935444
v 0.298788 1.461704 -2.935444
v -0.298788 1.461704 -2.935444
v 0.298788 1.461704 -3.533020
v -3.190280 1.461704 -3.533020
v -0.298788 1.461704 -3.533020
v -3.190280 1.461704 -2.935444
v -3.690280 1.461704 -2.935444
v -3.690280 1.461704 -3.533020
v -5.268847 0.000000 -2.935444
v -5.268847 0.000000 -3.533020
v -5.268847 1.461704 -2.935444
v -5.268847 1.461704 -3.533020
v -5.230205 0.665600 -3.541407
v -3.454069 2.037617 -3.099940
v -0.298788 0.000000 2.935444
v -0.298788 0.000000 3.533020
v 0.298788 0.000000 2.935444
v 0.298788 0.000000 3.533020
v 3.690280 0.000000 3.533020
v 3.190280 0.000000 3.533020
v 3.190280 0.000000 2.935444
v 3.190280 0.000000 0.000000
v -0.298788 2.560815 2.935444
v -0.298788 2.560815 3.533020
v 0.298788 2.560815 2.935444
v 3.690280 2.560815 2.935444
v 0.298788 2.560815 3.533020
v 3.690280 2.560815 3.533020
v 3.190280 2.560815 3.533020
v 3.190280 2.560815 2.935444
v 3.690280 2.560815 0.000000
v 3.190280 2.560815 0.000000
v -0.298788 1.461704 2.935444
v 0.298788 1.461704 2.935444
v -0.298788 1.461704 3.533020
v 3.190280 1.461704 3.533020
v 0.298788 1.461704 3.533020
v 3.190280 1.461704 2.935444
v 3.690280 1.461704 0.000000
v 3.690280 1.461704 2.935444
v 3.690280 1.461704 3.533020
v 3.190280 1.461704 0.000000
v 5.268847 0.000000 2.935444
v 5.268847 0.000000 3.533020
v 5.268847 0.000000 0.000000
v 5.268847 1.461704 0.000000
v 5.268847 1.461704 2.935444
v 5.268847 1.461704 3.533020
v 5.230205 0.665600 3.541407
v 3.454069 2.037617 3.099940
v 0.298788 0.000000 2.935444
v 0.298788 0.000000 3.533020
v -0.298788 0.000000 2.935444
v -0.298788 0.000000 3.533020
v -3.690280 0.000000 3.533020
v -3.190280 0.000000 3.533020
v -3.190280 0.000000 2.935444
v -3.190280 0.000000 0.000000
v 0.298788 2.560815 2.935444
v 0.298788 2.560815 3.533020
v -0.298788 2.560815 2.935444
v -3.690280 2.560815 2.935444
v -0.298788 2.560815 3.533020
v -3.690280 2.560815 3.533020
v -3.190280 2.560815 3.533020
v -3.190280 2.560815 2.935444
v -3.690280 2.560815 0.000000
v -3.190280 2.560815 0.000000
v 0.298788 1.461704 2.935444
v -0.298788 1.461704 2.935444
v 0.298788 1.461704 3.533020
v -3.190280 1.461704 3.533020
v -0.298788 1.461704 3.533020
v -3.190280 1.461704 2.935444
v -3.690280 1.461704 0.000000
v -3.690280 1.461704 2.935444
v -3.690280 1.461704 3.533020
v -3.190280 1.461704 0.000000
v -5.268847 0.000000 2.935444
v -5.268847 0.000000 3.533020
v -5.268847 0.000000 0.000000
v -5.268847 1.461704 0.000000
v -5.268847 1.461704 2.935444
v -5.268847 1.461704 3.533020
v -5.230205 0.665600 3.541407
v -3.454069 2.037617 3.099940
vt 0.425374 0.787885
vt 0.425374 0.755333
vt 0.582883 0.755333
vt 0.582883 0.787885
vt 0.392822 0.755333
vt 0.392822 0.787885
vt 0.610120 0.755333
vt 0.610120 0.787885
vt 0.139697 0.418066
vt 0.166934 0.418066
vt 0.166934 0.577969
vt 0.139697 0.577969
vt 0.425374 0.847757
vt 0.392822 0.847757
vt 0.425374 0.695460
vt 0.582883 0.695460
vt 0.582883 0.847757
vt 0.226806 0.418066
vt 0.226806 0.577969
vt 0.392822 0.695460
vt 0.226806 0.385513
vt 0.166934 0.385513
vt 0.079825 0.577969
vt 0.079825 0.418066
vt 0.610120 0.695460
vt 0.582883 0.615836
vt 0.610120 0.615836
vt 0.000201 0.577969
vt 0.000201 0.418066
vt 0.392822 0.615836
vt 0.425374 0.615836
vt 0.582883 0.927381
vt 0.425374 0.927381
vt 0.392822 0.927381
vt 0.392420 0.385513
vt 0.392420 0.418066
vt 0.312796 0.418066
vt 0.312796 0.385513
vt 0.392420 0.577969
vt 0.312796 0.577969
vt 0.696110 0.615836
vt 0.696110 0.695460
vt 0.967247 0.475939
vt 0.809738 0.475939
vt 0.809738 0.443387
vt 0.967247 0.443387
vt 0.999799 0.443387
vt 0.999799 0.475939
vt 0.782501 0.475939
vt 0.782501 0.443387
vt 0.252924 0.032753
vt 0.252924 0.192656
vt 0.225687 0.192656
vt 0.225687 0.032753
vt 0.967247 0.535811
vt 0.999799 0.535811
vt 0.967247 0.383514
vt 0.809738 0.383514
vt 0.809738 0.535811
vt 0.165815 0.032753
vt 0.165815 0.192656
vt 0.999799 0.383514
vt 0.165815 0.000201
vt 0.225687 0.000201
vt 0.312796 0.192656
vt 0.312796 0.032753
vt 0.782501 0.383514
vt 0.809738 0.303890
vt 0.782501 0.303890
vt 0.392420 0.192656
vt 0.392420 0.032753
vt 0.999799 0.303890
vt 0.967247 0.303890
vt 0.809738 0.615435
vt 0.967247 0.615435
vt 0.999799 0.615435
vt 0.000201 0.000201
vt 0.079825 0.000201
vt 0.079825 0.032753
vt 0.000201 0.032753
vt 0.079825 0.192656
vt 0.000201 0.192656
vt 0.696511 0.383514
vt 0.696511 0.303890
vt 0.532318 0.270937
vt 0.532318 0.113427
vt 0.564870 0.113427
vt 0.564870 0.270937
vt 0.564870 0.303489
vt 0.532318 0.303489
vt 0.532318 0.086191
vt 0.564870 0.086191
vt 0.139697 0.737873
vt 0.166934 0.737873
vt 0.472446 0.270937
vt 0.472446 0.303489
vt 0.624742 0.270937
vt 0.624742 0.113427
vt 0.472446 0.113427
vt 0.226806 0.737873
vt 0.624742 0.303489
vt 0.226806 0.770425
vt 0.166934 0.770425
vt 0.079825 0.737873
vt 0.624742 0.086191
vt 0.704367 0.113427
vt 0.704367 0.086191
vt 0.000201 0.737873
vt 0.704367 0.303489
vt 0.704367 0.270937
vt 0.392822 0.113427
vt 0.392822 0.270937
vt 0.392822 0.303489
vt 0.392420 0.770425
vt 0.312796 0.770425
vt 0.312796 0.737873
vt 0.392420 0.737873
vt 0.624743 0.000201
vt 0.704367 0.000201
vt 0.663558 0.443387
vt 0.663558 0.475939
vt 0.506048 0.475939
vt 0.506048 0.443387
vt 0.696110 0.475939
vt 0.696110 0.443387
vt 0.478812 0.475939
vt 0.478812 0.443387
vt 0.252924 0.352560
vt 0.225687 0.352560
vt 0.663558 0.383514
vt 0.696110 0.383514
vt 0.663558 0.535811
vt 0.506048 0.535811
vt 0.506048 0.383514
vt 0.165815 0.352560
vt 0.696110 0.535811
vt 0.165815 0.385112
vt 0.225687 0.385112
vt 0.312796 0.352560
vt 0.478812 0.535811
vt 0.506048 0.615435
vt 0.478812 0.615435
vt 0.392420 0.352560
vt 0.696110 0.615435
vt 0.663558 0.615435
vt 0.506048 0.303890
vt 0.663558 0.303890
vt 0.696110 0.303890
vt 0.000201 0.385112
vt 0.000201 0.352560
vt 0.079825 0.352560
vt 0.079825 0.385112
vt 0.392822 0.615435
vt 0.392822 0.535811
vn 0.0000 -1.0000 0.0000
vn 0.0000 0.0000 -1.0000
vn 0.0000 0.0000 1.0000
vn -1.0000 0.0000 0.0000
vn 1.0000 0.0000 0.0000
usemtl Material.001
s off
f 10/1/1 12/2/1 14/3/1 15/4/1
f 9/5/1 12/2/1 10/1/1 8/6/1
f 15/4/1 14/3/1 13/7/1 11/8/1
f 15/9/1 11/10/1 75/11/1 76/12/1
f 17/13/2 16/14/2 8/6/2 10/1/2
f 20/15/3 19/16/3 14/3/3 12/2/3
f 21/17/2 17/13/2 10/1/2 15/4/2
f 22/18/4 83/19/4 75/11/4 11/10/4
f 18/20/3 20/15/3 12/2/3 9/5/3
f 23/21/4 22/18/4 11/10/4 13/22/4
f 86/23/5 21/24/5 15/9/5 76/12/5
f 19/16/3 23/25/3 13/7/3 14/3/3
f 6/26/3 5/27/3 23/25/3 19/16/3
f 66/28/5 7/29/5 21/24/5 86/23/5
f 2/30/3 4/31/3 20/15/3 18/20/3
f 7/32/2 3/33/2 17/13/2 21/17/2
f 4/31/3 6/26/3 19/16/3 20/15/3
f 3/33/2 1/34/2 16/14/2 17/13/2
f 25/35/4 24/36/4 26/37/4 27/38/4
f 24/36/4 89/39/4 90/40/4 26/37/4
f 23/25/3 5/27/3 25/41/3 27/42/3
f 83/19/1 22/18/1 26/37/1 90/40/1
f 22/18/1 23/21/1 27/38/1 26/37/1
f 39/43/1 44/44/1 43/45/1 41/46/1
f 38/47/1 37/48/1 39/43/1 41/46/1
f 44/44/1 40/49/1 42/50/1 43/45/1
f 44/51/1 112/52/1 111/53/1 40/54/1
f 46/55/2 39/43/2 37/48/2 45/56/2
f 49/57/3 41/46/3 43/45/3 48/58/3
f 50/59/2 44/44/2 39/43/2 46/55/2
f 51/60/5 40/54/5 111/53/5 119/61/5
f 47/62/3 38/47/3 41/46/3 49/57/3
f 52/63/5 42/64/5 40/54/5 51/60/5
f 122/65/4 112/52/4 44/51/4 50/66/4
f 48/58/3 43/45/3 42/50/3 52/67/3
f 35/68/3 48/58/3 52/67/3 34/69/3
f 102/70/4 122/65/4 50/66/4 36/71/4
f 31/72/3 47/62/3 49/57/3 33/73/3
f 36/74/2 50/59/2 46/55/2 32/75/2
f 33/73/3 49/57/3 48/58/3 35/68/3
f 32/75/2 46/55/2 45/56/2 30/76/2
f 54/77/5 56/78/5 55/79/5 53/80/5
f 53/80/5 55/79/5 126/81/5 125/82/5
f 52/67/3 56/83/3 54/84/3 34/69/3
f 119/61/1 126/81/1 55/79/1 51/60/1
f 51/60/1 55/79/1 56/78/1 52/63/1
f 69/85/1 74/86/1 73/87/1 71/88/1
f 68/89/1 67/90/1 69/85/1 71/88/1
f 74/86/1 70/91/1 72/92/1 73/87/1
f 74/93/1 76/12/1 75/11/1 70/94/1
f 78/95/3 69/85/3 67/90/3 77/96/3
f 81/97/2 71/88/2 73/87/2 80/98/2
f 82/99/3 74/86/3 69/85/3 78/95/3
f 84/100/4 70/94/4 75/11/4 83/19/4
f 79/101/2 68/89/2 71/88/2 81/97/2
f 85/102/4 72/103/4 70/94/4 84/100/4
f 86/23/5 76/12/5 74/93/5 82/104/5
f 80/98/2 73/87/2 72/92/2 85/105/2
f 64/106/2 80/98/2 85/105/2 63/107/2
f 66/28/5 86/23/5 82/104/5 65/108/5
f 60/109/2 79/101/2 81/97/2 62/110/2
f 65/111/3 82/99/3 78/95/3 61/112/3
f 62/110/2 81/97/2 80/98/2 64/106/2
f 61/112/3 78/95/3 77/96/3 59/113/3
f 88/114/4 92/115/4 91/116/4 87/117/4
f 87/117/4 91/116/4 90/40/4 89/39/4
f 85/105/2 92/118/2 88/119/2 63/107/2
f 83/19/1 90/40/1 91/116/1 84/100/1
f 84/100/1 91/116/1 92/115/1 85/102/1
f 105/120/1 107/121/1 109/122/1 110/123/1
f 104/124/1 107/121/1 105/120/1 103/125/1
f 110/123/1 109/122/1 108/126/1 106/127/1
f 110/128/1 106/129/1 111/53/1 112/52/1
f 114/130/3 113/131/3 103/125/3 105/120/3
f 117/132/2 116/133/2 109/122/2 107/121/2
f 118/134/3 114/130/3 105/120/3 110/123/3
f 120/135/5 119/61/5 111/53/5 106/129/5
f 115/136/2 117/132/2 107/121/2 104/124/2
f 121/137/5 120/135/5 106/129/5 108/138/5
f 122/65/4 118/139/4 110/128/4 112/52/4
f 116/133/2 121/140/2 108/126/2 109/122/2
f 100/141/2 99/142/2 121/140/2 116/133/2
f 102/70/4 101/143/4 118/139/4 122/65/4
f 96/144/2 98/145/2 117/132/2 115/136/2
f 101/146/3 97/147/3 114/130/3 118/134/3
f 98/145/2 100/141/2 116/133/2 117/132/2
f 97/147/3 95/148/3 113/131/3 114/130/3
f 124/149/5 123/150/5 127/151/5 128/152/5
f 123/150/5 125/82/5 126/81/5 127/151/5
f 121/140/2 99/142/2 124/153/2 128/154/2
f 119/61/1 120/135/1 127/151/1 126/81/1
f 120/135/1 121/137/1 128/152/1 127/151/1
