# Blender v2.80 (sub 75) OBJ File: 'bread01.blend'
# www.blender.org
mtllib bread01.mtl
o BreadMesh_Cube.001
v -1.480305 -1.153801 -0.818702
v -1.524547 -1.153802 0.898874
v -0.883832 0.065400 -0.906792
v -0.867761 0.065400 0.725662
v 1.785688 -1.153801 -0.728509
v 1.788394 -1.153801 0.914922
v 0.980378 0.126936 -0.422648
v 1.008521 0.126936 0.736877
v -1.869655 -0.917454 0.010802
v -1.669223 -1.176611 0.030946
v -1.575980 -0.917454 0.938851
v -0.956752 0.126936 -0.133202
v -0.073161 0.161396 -0.709662
v 0.016834 0.126936 0.807967
v -1.542363 -0.917454 -0.922470
v 1.832331 -0.917454 -0.777481
v 2.275609 -0.917454 0.050123
v 2.057548 -1.176611 0.047276
v 0.069338 -1.176611 -1.051366
v -0.020074 -1.176611 1.283389
v 1.856953 -0.917454 0.992539
v 1.620756 -0.442033 1.096465
v 0.063604 -1.222229 0.054489
v 1.289366 0.065400 0.099725
v -0.032470 -0.917454 1.490955
v 0.056017 -0.917454 -1.256567
v -0.018164 -0.442033 1.450408
v 0.036577 -0.442033 -1.289205
v 1.963065 -0.442033 0.062372
v -1.371690 -0.442033 -1.044512
v -1.396346 -0.442033 0.970689
v 1.584569 -0.442033 -0.824838
v -1.689131 -0.442033 -0.017076
v 0.001705 -0.128792 1.248526
v -1.653181 -1.172704 0.542944
v -0.876515 -0.917454 -1.194366
v -0.952416 0.116395 -0.607111
v -0.554440 0.120088 -0.956916
v 0.577540 0.126936 0.826751
v 1.780613 -0.708788 1.056398
v 2.224338 -0.917454 0.530753
v 1.885231 -1.072832 -0.758644
v 1.993288 -1.172704 -0.421203
v 1.129434 -1.172704 -0.921705
v -0.998098 -1.172704 1.138146
v 1.312434 -0.128792 1.030005
v -1.631128 -1.172704 -0.480323
v 2.193551 -0.917454 -0.390472
v -0.919232 0.116395 0.374806
v 0.556251 0.130628 -0.593523
v -0.506101 0.116395 0.782264
v -0.028203 -0.708788 1.497895
v 1.050905 -0.917454 -1.093023
v 0.046496 -0.708788 -1.294495
v 2.003867 -1.172704 0.550494
v -0.921984 -1.172704 -0.983930
v 1.085952 -1.172704 1.148802
v -1.822756 -0.917454 -0.490077
v 0.008756 0.225496 0.101960
v -0.530539 0.225496 -0.353614
v -1.611590 -1.072832 0.925553
v 1.583627 -0.136769 0.074044
v 0.020037 -0.125100 -1.143806
v -0.952267 -0.917454 1.315724
v -1.573858 -1.072832 -0.876275
v -0.975406 -1.216527 0.044862
v 1.203922 -1.216527 0.052828
v 0.075411 -1.216527 -0.598510
v 0.022304 -1.216527 0.755532
v 2.333827 -1.075788 0.046536
v 2.171929 -0.708788 0.055660
v -0.034872 -1.075789 1.477731
v 0.883403 0.219240 0.164596
v -1.832008 -0.917454 0.493917
v -1.894966 -1.075788 0.020612
v 1.196570 0.116395 0.443747
v 1.903163 -1.072832 0.955471
v 1.015192 -0.917454 1.354298
v -1.493610 -0.708788 -0.995168
v 1.176202 0.116395 -0.188114
v -1.127997 -0.136769 0.885678
v 0.062753 -1.075788 -1.224160
v 1.273886 -0.128792 -0.735905
v -1.376010 -0.128792 -0.041012
v -1.115747 -0.136769 -1.007493
v -1.523745 -0.708788 0.968975
v 1.750297 -0.708788 -0.813652
v -1.822195 -0.708788 -0.002605
v -1.644095 -0.442033 0.519603
v -1.636405 -0.442033 -0.583716
v -0.831694 -0.442033 1.297678
v 0.905352 -0.442033 -1.124482
v 1.927564 -0.442033 0.612671
v -0.780117 -0.442032 -1.276620
v 1.893425 -0.442033 -0.426093
v 0.895605 -0.442033 1.385261
v 0.977041 -0.708788 1.391352
v 0.508028 0.220163 0.119797
v 2.277776 -1.075049 0.510962
v -0.998891 -1.211036 0.674768
v 1.096985 -1.075049 -1.065675
v -0.988528 -1.075049 1.301073
v 1.053105 -1.075050 1.323308
v 2.094072 -0.708788 -0.414479
v -0.849799 -0.708788 -1.253763
v -0.906059 -1.075049 -1.148723
v 2.126927 -0.708788 0.576456
v 1.001574 -0.708788 -1.127530
v -0.954285 -1.211036 -0.559415
v 1.187959 -1.211036 -0.525710
v 1.162952 -1.211036 0.677464
v 2.250426 -1.075049 -0.384363
v -1.850332 -1.075049 -0.463568
v 1.046971 0.204710 0.148595
v -1.861570 -1.075049 0.492570
v -0.644829 0.206095 -0.682433
v -0.473178 0.218169 0.227199
v -0.915892 -0.708788 1.329807
v -1.331246 -0.130786 -0.587896
v -1.332353 -0.130786 0.479831
v -1.780523 -0.708788 0.513394
v -1.771818 -0.708788 -0.542229
v -0.661635 -0.130786 1.134459
v 0.727230 -0.127869 -0.990106
v 1.552154 -0.130786 0.595076
v -0.637966 -0.129863 -1.182416
v 1.520373 -0.130786 -0.381362
v 0.736449 -0.128792 1.235480
v 1.502563 -0.329152 -0.801364
v -0.954912 0.152662 -0.334368
v -1.167098 -0.001365 -0.086949
v 0.780045 -0.190822 -1.029950
v -0.609383 0.242312 -0.580453
v -0.245499 0.176804 -0.798199
v -1.359773 -0.129534 0.152701
v 1.710097 -0.411833 -0.662776
v 0.517135 -0.096846 -1.035768
v -0.032109 0.065403 -0.900891
v 0.172792 -0.014763 -0.982393
v -1.300469 -0.088363 0.030015
v 1.243733 -0.350398 -0.933558
v 1.487309 -0.343972 -0.796997
v -0.039078 0.056625 -0.868428
v 0.760641 -0.186798 -1.015311
v -0.225446 0.150792 -0.791114
v -0.951754 0.128950 -0.314291
v -0.607427 0.214471 -0.559504
v 0.550879 -0.127179 -1.028434
v 0.196333 -0.033849 -0.959481
v 1.227321 -0.333681 -0.906844
vt 0.720811 0.292867
vt 0.616126 0.288788
vt 0.627970 0.251974
vt 0.744113 0.258478
vt 0.490385 0.286374
vt 0.489627 0.248600
vt 0.489202 0.219481
vt 0.635474 0.223207
vt 0.760406 0.231527
vt 0.565631 0.593647
vt 0.677148 0.609180
vt 0.677417 0.677880
vt 0.577657 0.682321
vt 0.775830 0.613248
vt 0.775416 0.691636
vt 0.760007 0.750420
vt 0.682076 0.729365
vt 0.600528 0.741690
vt 0.905532 0.271561
vt 0.841447 0.245090
vt 0.853018 0.224122
vt 0.916100 0.249438
vt 0.770985 0.210797
vt 0.245661 0.987895
vt 0.180028 0.937695
vt 0.188280 0.918787
vt 0.239818 0.946808
vt 0.312427 0.993080
vt 0.310221 0.951580
vt 0.296615 0.673962
vt 0.198279 0.672638
vt 0.203798 0.529884
vt 0.291262 0.528938
vt 0.123327 0.669904
vt 0.138728 0.532090
vt 0.170001 0.459836
vt 0.217288 0.438445
vt 0.288490 0.431744
vt 0.509932 0.039201
vt 0.369199 0.035665
vt 0.362181 0.013493
vt 0.509383 0.016552
vt 0.252547 0.036643
vt 0.243554 0.015201
vt 0.463901 0.813527
vt 0.424413 0.923752
vt 0.415288 0.907611
vt 0.439155 0.817502
vt 0.480632 0.665686
vt 0.452327 0.667789
vt 0.359583 0.221471
vt 0.353007 0.199835
vt 0.488935 0.197285
vt 0.259598 0.230954
vt 0.251281 0.210088
vt 0.112062 0.532734
vt 0.161715 0.444670
vt 0.092265 0.669122
vt 0.642640 0.201515
vt 0.121782 0.822570
vt 0.150469 0.824316
vt 0.287203 0.101658
vt 0.259900 0.106081
vt 0.220027 0.112542
vt 0.195571 0.073820
vt 0.266254 0.064784
vt 0.156894 0.143397
vt 0.133463 0.099304
vt 0.119605 0.068480
vt 0.179284 0.046028
vt 0.706776 0.108457
vt 0.623007 0.108521
vt 0.633344 0.072059
vt 0.724457 0.074083
vt 0.511069 0.106392
vt 0.510735 0.068927
vt 0.639393 0.042698
vt 0.737058 0.046488
vt 0.645514 0.020476
vt 0.745746 0.025230
vt 0.462480 0.528314
vt 0.435078 0.528898
vt 0.418027 0.437509
vt 0.407574 0.453798
vt 0.865435 0.346157
vt 0.795498 0.309141
vt 0.822514 0.271688
vt 0.890161 0.302082
vt 0.388514 0.102743
vt 0.376648 0.064980
vt 0.388106 0.671517
vt 0.375278 0.527877
vt 0.360153 0.434441
vt 0.374704 0.938713
vt 0.383849 0.827293
vt 0.303845 0.832996
vt 0.217042 0.831278
vt 0.169451 0.024314
vt 0.110182 0.046106
vt 0.373418 0.977866
vt 0.357809 0.400487
vt 0.288309 0.396718
vt 0.816332 0.031854
vt 0.884829 0.047444
vt 0.877956 0.069613
vt 0.808021 0.053340
vt 0.679252 0.751670
vt 0.632336 0.769596
vt 0.719149 0.775060
vt 0.671340 0.788950
vt 0.221040 0.405371
vt 0.181941 0.226734
vt 0.190191 0.247816
vt 0.118902 0.252002
vt 0.126507 0.273791
vt 0.543167 0.482413
vt 0.584618 0.474502
vt 0.574620 0.517214
vt 0.536233 0.526566
vt 0.649372 0.474632
vt 0.617968 0.533602
vt 0.591246 0.523500
vt 0.627174 0.474587
vt 0.556589 0.573014
vt 0.719221 0.481990
vt 0.696352 0.543749
vt 0.768030 0.489673
vt 0.773790 0.540310
vt 0.377076 0.287181
vt 0.366325 0.250000
vt 0.289697 0.293327
vt 0.271941 0.257987
vt 0.775916 0.117403
vt 0.747904 0.172927
vt 0.679853 0.156209
vt 0.853230 0.140755
vt 0.825002 0.201183
vt 0.584607 0.410711
vt 0.664485 0.405359
vt 0.656954 0.439877
vt 0.621885 0.474577
vt 0.522510 0.441469
vt 0.154246 0.343159
vt 0.223062 0.310335
vt 0.252289 0.366450
vt 0.209304 0.388254
vt 0.183850 0.401165
vt 0.316292 0.344840
vt 0.740058 0.415375
vt 0.797840 0.447428
vt 0.692592 0.409084
vt 0.674334 0.418183
vt 0.203774 0.274322
vt 0.136975 0.302859
vt 0.794370 0.080591
vt 0.868337 0.099245
vt 0.833752 0.515194
vt 0.849204 0.612306
vt 0.393845 0.339587
vt 0.491144 0.338547
vt 0.510725 0.709507
vt 0.505627 0.683516
vt 0.520297 0.631487
vt 0.538075 0.597900
vt 0.548133 0.789259
vt 0.406268 0.154411
vt 0.318399 0.156320
vt 0.296969 0.118770
vt 0.336028 0.120561
vt 0.402938 0.144720
vt 0.510405 0.155422
vt 0.437205 0.154712
vt 0.401004 0.139091
vt 0.742692 0.835802
vt 0.665702 0.840084
vt 0.806894 0.801687
vt 0.756647 0.367638
vt 0.686420 0.343799
vt 0.824559 0.407402
vt 0.490722 0.508853
vt 0.555104 0.569626
vt 0.532441 0.598770
vt 0.490280 0.605277
vt 0.605344 0.155091
vt 0.598904 0.826800
vt 0.256337 0.171904
vt 0.196121 0.204533
vt 0.842427 0.719661
vt 0.597076 0.339146
vt 0.516584 0.628003
vt 0.504651 0.678542
vt 0.588064 0.522297
vt 0.295437 0.116086
vt 0.335535 0.112527
vt 0.432237 0.154664
vn 0.5473 0.4487 0.7065
vn 0.2111 0.3109 0.9267
vn 0.2496 0.0041 0.9683
vn 0.6138 0.1621 0.7726
vn -0.0518 0.3325 0.9417
vn -0.0417 0.0405 0.9983
vn -0.0304 -0.0790 0.9964
vn 0.2586 -0.1092 0.9598
vn 0.6142 0.0316 0.7884
vn 0.1044 0.9520 -0.2876
vn 0.0220 0.9994 0.0263
vn 0.0242 0.9997 0.0069
vn 0.1117 0.9390 -0.3253
vn -0.0191 0.9402 0.3400
vn 0.0368 0.9367 0.3481
vn 0.2159 0.9258 0.3101
vn 0.0925 0.9956 0.0098
vn 0.2192 0.9305 -0.2933
vn 0.9244 0.3797 -0.0349
vn 0.8889 0.2795 0.3628
vn 0.8579 -0.4044 0.3169
vn 0.9157 -0.4005 -0.0315
vn 0.5820 -0.4383 0.6850
vn 0.2086 -0.9201 0.3315
vn 0.2397 -0.9610 0.1378
vn 0.2109 -0.9775 -0.0055
vn -0.0001 -1.0000 -0.0003
vn -0.0004 -0.9990 0.0453
vn -0.0386 -0.9982 0.0452
vn -0.0319 -0.9995 -0.0011
vn -0.0042 -0.9529 0.3033
vn -0.1433 -0.9292 0.3406
vn -0.2892 -0.9016 0.3217
vn -0.2989 -0.9474 0.1140
vn -0.2454 -0.9694 -0.0040
vn 0.0492 -0.1921 -0.9801
vn 0.2677 -0.0936 -0.9589
vn 0.2334 -0.4708 -0.8508
vn 0.0343 -0.5594 -0.8282
vn 0.5676 0.0977 -0.8174
vn 0.5576 -0.3775 -0.7392
vn 0.2168 -0.8951 -0.3895
vn 0.1099 -0.9186 -0.3797
vn 0.0117 -0.9448 -0.3274
vn -0.3528 -0.0115 0.9356
vn -0.3207 -0.4534 0.8316
vn -0.0222 -0.5278 0.8490
vn -0.7132 0.0980 0.6940
vn -0.6889 -0.3762 0.6195
vn 0.2345 -0.5142 0.8249
vn 0.1046 -0.9373 0.3323
vn 0.5257 0.3945 -0.7536
vn 0.6352 0.5950 -0.4924
vn 0.7017 0.6360 -0.3211
vn 0.8110 0.4311 -0.3954
vn 0.5755 0.2069 -0.7912
vn 0.7215 0.6918 -0.0279
vn 0.8557 0.5164 -0.0329
vn 0.8497 0.3112 -0.4256
vn -0.5960 0.3495 -0.7229
vn -0.1905 0.1850 -0.9641
vn -0.2150 -0.1161 -0.9697
vn -0.6482 0.0428 -0.7602
vn 0.0841 0.2002 -0.9761
vn 0.0645 -0.0880 -0.9940
vn -0.2158 -0.2225 -0.9507
vn -0.6429 -0.0863 -0.7611
vn -0.1961 -0.5520 -0.8104
vn -0.5974 -0.4744 -0.6465
vn -0.0919 -0.9359 -0.3401
vn -0.2326 -0.9179 -0.3213
vn 0.7269 0.6341 0.2636
vn 0.8466 0.4138 0.3345
vn 0.2770 0.2687 -0.9225
vn 0.2842 0.0133 -0.9586
vn 0.0009 -0.9987 -0.0514
vn -0.0345 -0.9981 -0.0508
vn -0.2716 -0.9550 -0.1195
vn 0.2546 -0.9517 -0.1718
vn 0.0326 -0.9979 -0.0557
vn 0.0270 -0.9996 -0.0001
vn 0.0313 -0.9983 0.0484
vn 0.8419 -0.3790 -0.3840
vn -0.8538 -0.4486 -0.2643
vn -0.8887 -0.4583 -0.0081
vn -0.9811 0.1931 -0.0080
vn -0.9398 0.1177 -0.3208
vn 0.2949 0.9554 -0.0114
vn 0.3907 0.9068 -0.1581
vn 0.4134 0.9017 0.1262
vn 0.5369 0.8434 -0.0188
vn -0.8777 -0.4124 0.2438
vn -0.9411 0.1837 0.2838
vn -0.3526 0.8127 -0.4638
vn -0.4424 0.8765 -0.1899
vn -0.1873 0.9462 -0.2640
vn -0.0762 0.8378 -0.5406
vn -0.3740 0.9271 0.0244
vn -0.0747 0.9968 -0.0291
vn 0.2213 0.8933 0.3911
vn 0.0515 0.8975 0.4379
vn 0.3874 0.9055 0.1728
vn -0.3464 0.9301 0.1218
vn -0.0837 0.9933 0.0789
vn -0.3038 0.8949 0.3268
vn -0.1151 0.9286 0.3527
vn -0.3163 0.3849 0.8670
vn -0.3533 0.1035 0.9297
vn -0.6184 0.4800 0.6222
vn -0.6984 0.2084 0.6846
vn -0.8065 0.5263 -0.2694
vn -0.6399 0.7427 -0.1971
vn -0.4786 0.6338 -0.6076
vn -0.8146 0.5800 -0.0035
vn -0.6280 0.7782 0.0010
vn -0.5267 0.8499 0.0110
vn -0.1237 0.9267 0.3547
vn -0.7897 0.5625 0.2448
vn -0.6011 0.7785 0.1805
vn -0.6098 0.7906 0.0558
vn -0.4671 0.7364 0.4894
vn -0.5079 0.8599 0.0508
vn -0.9081 0.3101 0.2815
vn -0.9421 0.3352 -0.0065
vn -0.9147 0.2544 -0.3140
vn -0.2185 0.7003 0.6795
vn -0.0468 0.6983 0.7142
vn 0.2217 0.6917 -0.6873
vn 0.2330 0.9666 0.1061
vn 0.2881 0.9575 -0.0151
vn 0.3752 0.9264 -0.0298
vn 0.3960 0.7454 -0.5361
vn 0.3231 0.9303 -0.1737
vn 0.3159 0.8170 -0.4823
vn 0.3576 0.9154 -0.1847
vn 0.0943 0.5843 -0.8060
vn 0.3553 0.8939 -0.2733
vn 0.2758 0.8029 -0.5283
vn 0.5792 0.7930 0.1890
vn 0.5990 0.8003 -0.0235
vn 0.3986 0.7282 0.5575
vn -0.1102 0.5445 -0.8314
vn 0.3637 0.9315 0.0080
vn 0.3236 0.9377 -0.1264
vn 0.5511 0.8012 -0.2331
vn 0.1212 0.6869 0.7165
vn 0.2722 0.9591 -0.0776
vn 0.1330 0.9557 0.2627
vn 0.2604 0.9344 -0.2431
vn 0.3275 0.7800 -0.5332
usemtl bread_material
s 1
f 22/1/1 96/2/2 97/3/3 40/4/4
f 96/2/2 27/5/5 52/6/6 97/3/3
f 97/3/3 52/6/6 25/7/7 78/8/8
f 40/4/4 97/3/3 78/8/8 21/9/9
f 13/10/10 59/11/11 98/12/12 50/13/13
f 59/11/11 14/14/14 39/15/15 98/12/12
f 98/12/12 39/15/15 8/16/16 73/17/17
f 50/13/13 98/12/12 73/17/17 7/18/18
f 17/19/19 41/20/20 99/21/21 70/22/22
f 41/20/20 21/9/9 77/23/23 99/21/21
f 99/24/21 77/25/23 6/26/24 55/27/25
f 70/28/22 99/24/21 55/27/25 18/29/26
f 23/30/27 69/31/28 100/32/29 66/33/30
f 69/31/28 20/34/31 45/35/32 100/32/29
f 100/32/29 45/35/32 2/36/33 35/37/34
f 66/33/30 100/32/29 35/37/34 10/38/35
f 26/39/36 53/40/37 101/41/38 82/42/39
f 53/40/37 16/43/40 42/44/41 101/41/38
f 101/45/38 42/46/41 5/47/42 44/48/43
f 82/49/39 101/45/38 44/48/43 19/50/44
f 25/7/7 64/51/45 102/52/46 72/53/47
f 64/51/45 11/54/48 61/55/49 102/52/46
f 102/56/46 61/57/49 2/36/33 45/35/32
f 72/58/47 102/56/46 45/35/32 20/34/31
f 21/9/9 78/8/8 103/59/50 77/23/23
f 78/8/8 25/7/7 72/53/47 103/59/50
f 103/60/50 72/58/47 20/34/31 57/61/51
f 77/25/23 103/60/50 57/61/51 6/26/24
f 32/62/52 136/63/53 95/64/54 104/65/55 87/66/56
f 95/64/54 29/67/57 71/68/58 104/65/55
f 104/65/55 71/68/58 17/69/19 48/70/59
f 87/66/56 104/65/55 48/70/59 16/43/40
f 30/71/60 94/72/61 105/73/62 79/74/63
f 94/72/61 28/75/64 54/76/65 105/73/62
f 105/73/62 54/76/65 26/39/36 36/77/66
f 79/74/63 105/73/62 36/77/66 15/78/67
f 15/78/67 36/77/66 106/79/68 65/80/69
f 36/77/66 26/39/36 82/42/39 106/79/68
f 106/81/68 82/49/39 19/50/44 56/82/70
f 65/83/69 106/81/68 56/82/70 1/84/71
f 29/85/57 93/86/72 107/87/73 71/88/58
f 93/86/72 22/1/1 40/4/4 107/87/73
f 107/87/73 40/4/4 21/9/9 41/20/20
f 71/88/58 107/87/73 41/20/20 17/19/19
f 28/75/64 92/89/74 108/90/75 54/76/65
f 92/89/74 32/62/52 87/66/56 108/90/75
f 108/90/75 87/66/56 16/43/40 53/40/37
f 54/76/65 108/90/75 53/40/37 26/39/36
f 19/50/44 68/91/76 109/92/77 56/82/70
f 68/91/76 23/30/27 66/33/30 109/92/77
f 109/92/77 66/33/30 10/38/35 47/93/78
f 56/82/70 109/92/77 47/93/78 1/84/71
f 5/47/42 43/94/79 110/95/80 44/48/43
f 43/94/79 18/29/26 67/96/81 110/95/80
f 110/95/80 67/96/81 23/30/27 68/91/76
f 44/48/43 110/95/80 68/91/76 19/50/44
f 18/29/26 55/27/25 111/97/82 67/96/81
f 55/27/25 6/26/24 57/61/51 111/97/82
f 111/97/82 57/61/51 20/34/31 69/31/28
f 67/96/81 111/97/82 69/31/28 23/30/27
f 16/43/40 48/70/59 112/98/83 42/44/41
f 48/70/59 17/69/19 70/99/22 112/98/83
f 112/100/83 70/28/22 18/29/26 43/94/79
f 42/46/41 112/100/83 43/94/79 5/47/42
f 1/84/71 47/93/78 113/101/84 65/83/69
f 47/93/78 10/38/35 75/102/85 113/101/84
f 113/103/84 75/104/85 9/105/86 58/106/87
f 65/80/69 113/103/84 58/106/87 15/78/67
f 7/18/18 73/17/17 114/107/88 80/108/89
f 8/16/16 76/109/90 114/107/88 73/17/17
f 24/110/91 80/108/89 114/107/88 76/109/90
f 10/38/35 35/37/34 115/111/92 75/102/85
f 35/37/34 2/36/33 61/57/49 115/111/92
f 115/112/92 61/55/49 11/54/48 74/113/93
f 75/114/85 115/112/92 74/113/93 9/115/86
f 3/116/94 37/117/95 116/118/96 38/119/97
f 12/120/98 60/121/99 147/122/100 146/123/101
f 13/10/10 145/124/102 147/122/100 60/121/99
f 12/120/98 49/125/103 117/126/104 60/121/99
f 49/125/103 4/127/105 51/128/106 117/126/104
f 117/126/104 51/128/106 14/14/14 59/11/11
f 60/121/99 117/126/104 59/11/11 13/10/10
f 27/5/5 91/129/107 118/130/108 52/6/6
f 91/129/107 31/131/109 86/132/110 118/130/108
f 118/130/108 86/132/110 11/54/48 64/51/45
f 52/6/6 118/130/108 64/51/45 25/7/7
f 30/71/60 90/133/111 119/134/112 85/135/113
f 90/133/111 33/136/114 84/137/115 119/134/112
f 119/138/112 84/139/115 131/140/116 130/141/117 37/117/95
f 85/142/113 119/138/112 37/117/95 3/116/94
f 33/143/114 89/144/118 120/145/119 135/146/120 84/147/115
f 89/144/118 31/131/109 81/148/121 120/145/119
f 120/149/119 81/150/121 4/127/105 49/125/103
f 84/139/115 135/151/120 140/152/122 131/140/116
f 9/115/86 74/113/93 121/153/123 88/154/124
f 74/113/93 11/54/48 86/132/110 121/153/123
f 121/153/123 86/132/110 31/131/109 89/144/118
f 88/154/124 121/153/123 89/144/118 33/143/114
f 15/78/67 58/106/87 122/155/125 79/74/63
f 58/106/87 9/105/86 88/156/124 122/155/125
f 122/155/125 88/156/124 33/136/114 90/133/111
f 79/74/63 122/155/125 90/133/111 30/71/60
f 14/14/14 51/128/106 123/157/126 34/158/127
f 51/128/106 4/127/105 81/150/121 123/157/126
f 123/159/126 81/148/121 31/131/109 91/129/107
f 34/160/127 123/159/126 91/129/107 27/5/5
f 13/10/10 50/13/13 124/161/128 148/162/129 149/163/130 143/164/131
f 50/13/13 7/18/18 83/165/132 124/161/128
f 124/166/128 83/167/132 142/168/133 150/169/134 144/170/135
f 63/171/136 137/172/137 132/173/138 92/89/74 28/75/64
f 24/110/91 76/109/90 125/174/139 62/175/140
f 76/109/90 8/16/16 46/176/141 125/174/139
f 125/177/139 46/178/141 22/1/1 93/86/72
f 62/179/140 125/177/139 93/86/72 29/85/57
f 3/116/94 38/119/97 126/180/142 85/142/113
f 38/119/97 134/181/143 138/182/144 63/183/136 126/180/142
f 126/184/142 63/171/136 28/75/64 94/72/61
f 85/135/113 126/184/142 94/72/61 30/71/60
f 7/18/18 80/108/89 127/185/145 83/165/132
f 80/108/89 24/110/91 62/175/140 127/185/145
f 127/186/145 62/187/140 29/67/57 95/64/54
f 83/167/132 127/186/145 95/64/54 136/63/53 142/168/133
f 8/16/16 39/15/15 128/188/146 46/176/141
f 39/15/15 14/14/14 34/158/127 128/188/146
f 128/189/146 34/160/127 27/5/5 96/2/2
f 46/178/141 128/189/146 96/2/2 22/1/1
f 138/182/144 139/190/147 137/191/137 63/183/136
f 130/141/117 133/192/148 116/118/96 37/117/95
f 131/140/116 140/152/122 135/151/120 120/149/119 49/125/103 12/120/98
f 129/193/149 136/63/53 32/62/52
f 133/192/148 134/181/143 38/119/97 116/118/96
f 132/173/138 141/194/150 129/193/149 32/62/52 92/89/74
f 138/182/144 134/181/143 145/124/102 143/164/131
f 130/141/117 131/140/116 146/123/101
f 132/173/138 137/172/137 148/195/129 144/170/135
f 143/164/131 149/163/130 148/162/129 137/191/137 139/190/147 138/182/144
f 146/123/101 147/122/100 133/192/148 130/141/117
f 146/123/101 131/140/116 12/120/98
f 142/168/133 136/63/53 129/193/149
f 147/122/100 145/124/102 134/181/143 133/192/148
f 144/170/135 148/195/129 124/166/128
f 144/170/135 150/169/134 142/168/133 129/193/149 141/194/150 132/173/138
f 143/164/131 145/124/102 13/10/10
